<svg width="154" height="183" viewBox="0 0 154 183" fill="none" xmlns="http://www.w3.org/2000/svg">
<path d="M146.19 182.601H7.80992C7.80992 182.601 -6.07438 170.631 3.18182 154.202C15.7193 131.949 43.2149 137.772 43.2149 137.772C43.8472 138.612 44.5231 139.418 45.2397 140.185C62.3428 158.919 91.6549 158.919 108.76 140.185C109.476 139.417 110.152 138.612 110.785 137.772C110.785 137.772 138.281 131.949 150.818 154.202C160.074 170.631 146.19 182.601 146.19 182.601Z" fill="#202020"/>
<path d="M135.811 79.0909C128.501 99.4633 111.789 132.674 77.3609 148.329C42.9325 132.669 25.1999 102.28 17.8898 81.9074C11.5609 64.2716 14.7126 41.74 25.0495 26.1767C33.7897 13.0144 49.4188 1.02566 77.3609 0C105.303 1.02566 120.932 13.0144 129.675 26.1767C140.011 41.74 142.14 61.4552 135.811 79.0909Z" fill="#ACB6BF"/>
<path d="M42.2638 72.7588H51.52C57.0202 72.7588 62.2951 74.9749 66.1843 78.9196C70.0735 82.8642 72.2585 88.2143 72.2585 93.7929V97.0788C72.2585 98.1599 71.8354 99.1967 71.0822 99.9615C70.3289 100.726 69.3071 101.157 68.2413 101.158H58.9851C53.4849 101.158 48.21 98.9419 44.3208 94.9972C40.4315 91.0525 38.2466 85.7024 38.2466 80.1238V76.8379C38.2466 75.7569 38.6697 74.7201 39.4229 73.9552C40.1761 73.1904 41.1979 72.76 42.2638 72.7588Z" fill="#202020"/>
<path d="M95.0291 101.158H85.7729C85.2447 101.158 84.7217 101.053 84.2338 100.848C83.7458 100.643 83.3025 100.342 82.929 99.9634C82.5555 99.5847 82.2593 99.135 82.0572 98.6401C81.8551 98.1452 81.751 97.6147 81.751 97.079V93.7932C81.751 88.2145 83.936 82.8644 87.8252 78.9197C91.7144 74.975 96.9894 72.7589 102.49 72.7589H111.746C112.812 72.7589 113.835 73.1887 114.59 73.9537C115.344 74.7187 115.768 75.7562 115.768 76.8381V80.1239C115.768 85.7026 113.583 91.0527 109.693 94.9974C105.804 98.9421 100.529 101.158 95.0291 101.158Z" fill="#202020"/>
</svg>
