<svg width="25" height="25" viewBox="0 0 25 25" fill="none" xmlns="http://www.w3.org/2000/svg">
<path d="M16.2257 6.65137H8.77459C7.58528 6.65137 6.61768 7.61897 6.61768 8.80828V16.2594C6.61768 17.4487 7.58528 18.4166 8.77459 18.4166H16.2257C17.415 18.4166 18.3829 17.449 18.3829 16.2594V8.80828C18.3829 7.61897 17.4153 6.65137 16.2257 6.65137ZM12.5002 16.407C10.3647 16.407 8.62725 14.6696 8.62725 12.5339C8.62725 10.3984 10.3647 8.66094 12.5002 8.66094C14.6359 8.66094 16.3734 10.3984 16.3734 12.5339C16.3734 14.6693 14.6356 16.407 12.5002 16.407ZM16.4979 9.4617C15.9923 9.4617 15.5812 9.0506 15.5812 8.54535C15.5812 8.0401 15.9923 7.629 16.4979 7.629C17.0031 7.629 17.4142 8.0401 17.4142 8.54535C17.4142 9.0506 17.0031 9.4617 16.4979 9.4617Z" fill="white"/>
<path d="M12.4998 10.2974C11.267 10.2974 10.2632 11.3006 10.2632 12.5334C10.2632 13.7667 11.267 14.7702 12.4998 14.7702C13.7331 14.7702 14.736 13.7667 14.736 12.5334C14.736 11.3009 13.7328 10.2974 12.4998 10.2974Z" fill="white"/>
<path d="M12.5 0C5.59672 0 0 5.59672 0 12.5C0 19.4033 5.59672 25 12.5 25C19.4033 25 25 19.4033 25 12.5C25 5.59672 19.4033 0 12.5 0ZM20.0191 16.2593C20.0191 18.3513 18.3176 20.0528 16.2256 20.0528H8.77443C6.68269 20.0528 4.98089 18.3513 4.98089 16.2593V8.80813C4.98089 6.71639 6.68269 5.01459 8.77443 5.01459H16.2256C18.3176 5.01459 20.0191 6.71639 20.0191 8.80813V16.2593Z" fill="white"/>
</svg>
