<svg width="110" height="61" viewBox="0 0 110 61" fill="none" xmlns="http://www.w3.org/2000/svg">
<path d="M1.864 30.076C1.864 26.164 3.16 22.936 5.752 20.392C8.368 17.824 11.692 16.54 15.724 16.54C19.732 16.54 23.044 17.812 25.66 20.356C28.276 22.9 29.584 26.128 29.584 30.04C29.584 33.928 28.276 37.156 25.66 39.724C23.044 42.292 19.732 43.576 15.724 43.576C11.716 43.576 8.404 42.304 5.788 39.76C3.172 37.192 1.864 33.964 1.864 30.076ZM15.724 23.02C13.852 23.02 12.268 23.704 10.972 25.072C9.7 26.416 9.064 28.084 9.064 30.076C9.064 32.068 9.7 33.736 10.972 35.08C12.244 36.424 13.828 37.096 15.724 37.096C17.572 37.096 19.132 36.412 20.404 35.044C21.676 33.676 22.312 32.008 22.312 30.04C22.312 28.072 21.676 26.416 20.404 25.072C19.132 23.704 17.572 23.02 15.724 23.02ZM34.1338 43V17.044H44.7538C47.3938 17.044 49.5418 17.836 51.1978 19.42C52.8538 20.98 53.6818 23.032 53.6818 25.576C53.6818 28.24 52.9138 30.328 51.3778 31.84C49.8418 33.328 47.7298 34.072 45.0418 34.072H41.1898V43H34.1338ZM41.1898 22.552V28.816H42.9898C45.4618 28.816 46.6978 27.724 46.6978 25.54C46.6978 24.628 46.4218 23.908 45.8698 23.38C45.3658 22.828 44.6338 22.552 43.6738 22.552H41.1898ZM57.5633 43V17.044H73.1153V22.732H64.6193V27.088H72.6473V32.632H64.6193V37.204H73.1873V43H57.5633ZM78.0046 43V17.044H85.1326L94.0966 30.472L94.8526 31.696L96.4006 34.72L95.7886 31.408L95.6806 29.932V17.044H102.593V43H95.6086L86.5006 29.464L85.7446 28.204C85.5526 27.868 85.3366 27.46 85.0966 26.98C84.8566 26.476 84.5806 25.912 84.2686 25.288L84.9166 28.564L85.0246 30.04V43H78.0046Z" fill="white"/>
<circle cx="16" cy="30" r="8" fill="white"/>
<path d="M52.602 57V46.906H55.99C57.1753 46.906 58.1693 47.0787 58.972 47.424C59.784 47.76 60.4187 48.3387 60.876 49.16C61.3333 49.972 61.562 50.9053 61.562 51.96C61.562 53.528 61.1233 54.76 60.246 55.656C59.378 56.552 58.1693 57 56.62 57H52.602ZM55.36 49.328V54.648H56.102C56.942 54.648 57.5907 54.4147 58.048 53.948C58.5147 53.472 58.748 52.8 58.748 51.932C58.748 50.196 57.894 49.328 56.186 49.328H55.36ZM63.3404 57V46.906H67.1484C68.2871 46.906 69.1924 47.1953 69.8644 47.774C70.5458 48.3433 70.8864 49.1087 70.8864 50.07C70.8864 51.5447 70.1724 52.492 68.7444 52.912L71.6564 57H68.3664L66.5184 53.948L66.3224 53.598L65.9584 52.884C66.0424 53.388 66.0844 53.7893 66.0844 54.088V57H63.3404ZM66.0704 49.118V51.512H66.6864C67.1064 51.512 67.4471 51.3953 67.7084 51.162C67.9698 50.9287 68.1004 50.6207 68.1004 50.238C68.1004 49.4913 67.7084 49.118 66.9244 49.118H66.0704ZM72.3637 51.974C72.3637 50.4527 72.8677 49.1973 73.8757 48.208C74.893 47.2093 76.1857 46.71 77.7537 46.71C79.3123 46.71 80.6003 47.2047 81.6177 48.194C82.635 49.1833 83.1437 50.4387 83.1437 51.96C83.1437 53.472 82.635 54.7273 81.6177 55.726C80.6003 56.7247 79.3123 57.224 77.7537 57.224C76.195 57.224 74.907 56.7293 73.8897 55.74C72.8723 54.7413 72.3637 53.486 72.3637 51.974ZM77.7537 49.23C77.0257 49.23 76.4097 49.496 75.9057 50.028C75.411 50.5507 75.1637 51.1993 75.1637 51.974C75.1637 52.7487 75.411 53.3973 75.9057 53.92C76.4003 54.4427 77.0163 54.704 77.7537 54.704C78.4723 54.704 79.079 54.438 79.5737 53.906C80.0683 53.374 80.3157 52.7253 80.3157 51.96C80.3157 51.1947 80.0683 50.5507 79.5737 50.028C79.079 49.496 78.4723 49.23 77.7537 49.23ZM84.913 57V46.906H87.685L91.171 52.128L91.465 52.604L92.067 53.78L91.829 52.492L91.787 51.918V46.906H94.475V57H91.759L88.217 51.736L87.923 51.246C87.8483 51.1153 87.7643 50.9567 87.671 50.77C87.5777 50.574 87.4703 50.3547 87.349 50.112L87.601 51.386L87.643 51.96V57H84.913ZM96.5538 57V46.906H102.602V49.118H99.2978V50.812H102.42V52.968H99.2978V54.746H102.63V57H96.5538Z" fill="white"/>
<path d="M0.888 6.37V3.906H7.72V6.384L5.662 6.342V14H2.918V6.342L0.888 6.37ZM9.07286 14V3.906H11.8309V7.714H15.0229V3.906H17.7809V14H15.0369V10.066H11.8309V14H9.07286ZM19.825 14V3.906H25.873V6.118H22.569V7.812H25.691V9.968H22.569V11.746H25.901V14H19.825Z" fill="white"/>
</svg>
