<svg width="328" height="57" viewBox="0 0 328 57" fill="none" xmlns="http://www.w3.org/2000/svg">
<path d="M14.2898 56L17.7415 45.0057H35.8182L39.2699 56H52.8722L35.2045 3.63636H18.3551L0.6875 56H14.2898ZM20.7585 35.392L26.5625 16.8295H26.9716L32.8011 35.392H20.7585ZM58.2203 56H70.7231V16.7273H58.2203V56ZM64.4845 12.1506C68.0384 12.1506 70.9021 9.46591 70.9021 6.16761C70.9021 2.86931 68.0384 0.210224 64.4845 0.210224C60.9561 0.210224 58.0668 2.86931 58.0668 6.16761C58.0668 9.46591 60.9561 12.1506 64.4845 12.1506ZM78.3212 56H90.824V34.6761C90.824 29.9972 94.1479 26.8523 98.6223 26.8523C100.105 26.8523 102.33 27.108 103.531 27.517V16.6506C102.483 16.3693 101.179 16.1903 100.029 16.1903C95.7331 16.1903 92.307 18.696 90.8752 23.8864H90.4661V16.7273H78.3212V56ZM108.266 56H120.641V49.6335H121.024C122.61 53.2642 126.138 56.5625 132.07 56.5625C140.763 56.5625 147.769 49.7614 147.769 36.3892C147.769 22.5312 140.354 16.2159 132.147 16.2159C125.933 16.2159 122.533 19.8466 121.024 23.4517H120.769V3.63636H108.266V56ZM120.513 36.3636C120.513 29.946 123.172 25.983 127.749 25.983C132.377 25.983 134.933 30.0483 134.933 36.3636C134.933 42.7045 132.377 46.821 127.749 46.821C123.172 46.821 120.513 42.7301 120.513 36.3636ZM172.293 56.7415C184.642 56.7415 192.134 48.5852 192.134 36.4915C192.134 24.3722 184.642 16.2159 172.293 16.2159C159.944 16.2159 152.452 24.3722 152.452 36.4915C152.452 48.5852 159.944 56.7415 172.293 56.7415ZM172.37 47.3068C167.742 47.3068 165.185 42.9091 165.185 36.4148C165.185 29.8949 167.742 25.4716 172.37 25.4716C176.844 25.4716 179.401 29.8949 179.401 36.4148C179.401 42.9091 176.844 47.3068 172.37 47.3068ZM223.517 39.0483C223.517 43.625 220.602 46.1818 216.895 46.1818C213.059 46.1818 210.707 43.5739 210.682 39.304V16.7273H198.179V41.7585C198.204 50.6307 203.599 56.5114 211.679 56.5114C217.559 56.5114 221.932 53.4943 223.67 48.6875H224.079V56H235.994V16.7273H223.517V39.0483ZM256.095 33.6023C256.121 29.1278 258.728 26.4688 262.692 26.4688C266.655 26.4688 269.007 29.0767 268.981 33.4233V56H281.484V30.9688C281.51 22.1222 276.115 16.2159 267.856 16.2159C262.052 16.2159 257.655 19.1562 255.916 23.9375H255.481V16.7273H243.592V56H256.095V33.6023ZM303.209 56.5625C309.141 56.5625 312.669 53.2642 314.254 49.6335H314.638V56H327.013V3.63636H314.51V23.4517H314.254C312.771 19.8466 309.345 16.2159 303.158 16.2159C294.95 16.2159 287.51 22.5312 287.51 36.3892C287.51 49.7614 294.541 56.5625 303.209 56.5625ZM307.555 46.821C302.927 46.821 300.345 42.7045 300.345 36.3636C300.345 30.0483 302.902 25.983 307.555 25.983C312.132 25.983 314.791 29.946 314.791 36.3636C314.791 42.7301 312.106 46.821 307.555 46.821Z" fill="black"/>
</svg>
