<svg width="198" height="192" viewBox="0 0 198 192" fill="none" xmlns="http://www.w3.org/2000/svg">
<g clip-path="url(#clip0)">
<path d="M136.819 95.9995C136.819 116.222 119.854 132.672 98.9999 132.672C78.1459 132.672 61.1812 116.222 61.1812 95.9995C61.1812 75.7775 78.1459 59.3268 98.9999 59.3268C105.094 59.3193 111.099 60.7492 116.497 63.4932L133.404 47.099C123.275 40.3658 111.28 36.7689 98.9999 36.7829C68.463 36.7829 43.0864 58.6324 38.6287 87.057C40.5842 89.0014 41.8514 91.4985 42.2471 94.1872C42.6428 96.8759 42.1465 99.617 40.8299 102.014C39.5133 104.411 37.4446 106.341 34.923 107.523C32.4013 108.705 29.5573 109.079 26.8022 108.59C24.047 108.102 21.5233 106.776 19.5961 104.805C17.6689 102.835 16.4379 100.321 16.0811 97.6268C15.7244 94.9329 16.2603 92.1988 17.6114 89.8198C18.9626 87.4407 21.0589 85.54 23.5974 84.3923C25.6478 71.8309 31.0014 59.9938 39.1421 50.0225C47.2827 40.0512 57.9357 32.2823 70.0735 27.4649C82.2114 22.6475 95.4245 20.9442 108.439 22.5193C121.453 24.0944 133.829 28.8948 144.373 36.4574L160.533 20.7879C142.401 6.80001 119.769 -0.5499 96.6077 0.0277218C41.9473 1.31018 -1.29134 45.3152 0.0289611 98.3279C1.34926 151.341 46.7317 193.26 101.401 191.98C155.263 190.717 198.033 147.971 198.009 96.0082L136.819 95.9995ZM110.426 169.2C109.315 171.311 107.621 173.082 105.534 174.316C103.446 175.549 101.046 176.196 98.6011 176.184C96.1564 176.173 93.7631 175.503 91.6876 174.251C89.6122 172.998 87.9362 171.211 86.8464 169.089C85.8425 167.132 85.3718 164.959 85.4792 162.776C85.5866 160.593 86.2684 158.473 87.4598 156.618C88.6512 154.763 90.3125 153.234 92.2855 152.178C94.2584 151.122 96.4774 150.573 98.7311 150.583C100.985 150.594 103.198 151.164 105.161 152.238C107.123 153.313 108.769 154.857 109.942 156.723C111.114 158.59 111.775 160.716 111.861 162.9C111.946 165.084 111.454 167.252 110.431 169.2H110.426ZM112.427 95.9995L105.572 102.646C103.871 104.286 101.57 105.206 99.1711 105.206C96.7724 105.206 94.4712 104.286 92.7699 102.646L90.8454 100.78C89.1546 99.1302 88.2056 96.8987 88.2056 94.5727C88.2056 92.2468 89.1546 90.0153 90.8454 88.3655L106.262 73.4165C101.356 71.9331 96.0925 71.9898 91.2222 73.5787C86.3518 75.1676 82.1233 78.2074 79.1399 82.2644C76.1566 86.3215 74.5707 91.1886 74.6086 96.1713C74.6465 101.154 76.3062 105.998 79.351 110.012C82.3958 114.026 86.67 117.005 91.564 118.524C96.458 120.043 101.722 120.024 106.604 118.471C111.487 116.917 115.739 113.908 118.753 109.873C121.768 105.838 123.391 100.982 123.392 95.9995H112.427Z" fill="#ACB6BF"/>
<path d="M90.8454 88.3663L106.262 73.4173C101.356 71.9338 96.0925 71.9906 91.2222 73.5795C86.3518 75.1683 82.1233 78.2081 79.1399 82.2652C76.1565 86.3222 74.5707 91.1893 74.6086 96.1721C74.6465 101.155 76.3062 105.999 79.351 110.013C82.3958 114.027 86.67 117.006 91.564 118.525C96.458 120.044 101.722 120.025 106.604 118.472C111.487 116.918 115.739 113.909 118.753 109.874C121.768 105.839 123.391 100.983 123.392 96.0003H136.819C136.819 116.222 119.854 132.673 98.9999 132.673C78.1459 132.673 61.1812 116.222 61.1812 96.0003C61.1812 75.7782 78.1459 59.3276 98.9999 59.3276C105.094 59.32 111.099 60.7499 116.497 63.4939L133.404 47.0997C123.275 40.3666 111.28 36.7696 98.9999 36.7836C68.4629 36.7836 43.0864 58.6332 38.6287 87.0578C36.7173 85.1573 34.2439 83.88 31.551 83.4025C28.858 82.9251 26.0786 83.2713 23.5974 84.393C25.6478 71.8317 31.0014 59.9945 39.1421 50.0233C47.2827 40.052 57.9357 32.283 70.0735 27.4656C82.2113 22.6482 95.4245 20.9449 108.439 22.52C121.453 24.0951 133.829 28.8955 144.373 36.4581L160.532 20.7887L170.182 11.4317C171.883 9.79109 174.184 8.87012 176.583 8.87012C178.982 8.87012 181.284 9.79109 182.984 11.4317L184.907 13.2957C186.599 14.9453 187.548 17.1774 187.548 19.5041C187.548 21.8307 186.599 24.0628 184.907 25.7124L105.572 102.647C103.871 104.286 101.57 105.207 99.1711 105.207C96.7724 105.207 94.4712 104.286 92.7699 102.647L90.8454 100.781C89.1545 99.1309 88.2055 96.8995 88.2055 94.5735C88.2055 92.2476 89.1545 90.0161 90.8454 88.3663Z" fill="#202020"/>
<path d="M89.1983 154.453C63.1683 150.36 42.6008 130.262 38.6287 104.943C36.7178 106.844 34.2447 108.122 31.5517 108.6C28.8587 109.078 26.079 108.733 23.5974 107.612C26.114 123.014 33.5847 137.252 44.9429 148.293C56.3011 159.334 70.9661 166.612 86.8442 169.089C85.6238 166.714 85.1949 164.03 85.6166 161.407C86.0383 158.785 87.29 156.355 89.1983 154.453ZM160.067 96C160.067 125.614 137.532 150.219 108.22 154.542C110.107 156.463 111.333 158.905 111.728 161.53C112.124 164.156 111.67 166.835 110.428 169.2C128.492 166.555 144.977 157.713 156.887 144.279C168.796 130.846 175.338 113.715 175.324 96H160.067Z" fill="#202020"/>
<path d="M98.0931 176.878C105.877 177.622 112.735 172.286 113.412 164.959C114.089 157.633 108.328 151.091 100.545 150.347C92.7614 149.603 85.9028 154.939 85.2258 162.266C84.5487 169.592 90.3097 176.134 98.0931 176.878Z" fill="#F8F9FA"/>
</g>
<path d="M27.9448 109.92C35.7283 110.663 42.6045 105.137 43.3032 97.5758C44.0019 90.0146 38.2586 83.282 30.4751 82.5382C22.6916 81.7944 15.8154 87.321 15.1167 94.8821C14.4179 102.443 20.1613 109.176 27.9448 109.92Z" fill="#F8F9FA"/>
<defs>
<clipPath id="clip0">
<rect width="198" height="192" fill="white"/>
</clipPath>
</defs>
</svg>
