<svg width="261" height="181" viewBox="0 0 261 181" fill="none" xmlns="http://www.w3.org/2000/svg">
<path d="M123.587 167.947C191.403 174.992 248.305 158.047 250.68 130.1C253.056 102.153 200.006 73.7858 132.19 66.7407C64.3744 59.6956 7.47276 76.6401 5.09701 104.587C2.72127 132.535 55.7711 160.902 123.587 167.947Z" fill="#202020"/>
<path d="M205.304 91.201C208.708 51.0518 178.084 16.9467 137.097 12.678C96.111 8.40935 60.2897 35.5942 56.8853 75.7434C56.8853 75.7434 82.3091 93.8154 129.98 98.0601C177.651 102.305 205.304 91.201 205.304 91.201Z" fill="#ACB6BF"/>
<path d="M125.827 140.809C131.206 141.37 135.928 137.545 136.375 132.266C136.822 126.988 132.824 122.253 127.445 121.692C122.066 121.131 117.343 124.955 116.897 130.234C116.45 135.513 120.448 140.247 125.827 140.809Z" fill="#F8F9FA"/>
<path d="M62.9635 117.652C68.3423 118.213 73.0649 114.388 73.5117 109.109C73.9585 103.83 69.9603 99.096 64.5815 98.5347C59.2027 97.9735 54.4801 101.798 54.0333 107.077C53.5865 112.356 57.5847 117.09 62.9635 117.652Z" fill="#F8F9FA"/>
<path d="M191.418 133.435C196.783 133.98 201.505 130.129 201.966 124.833C202.427 119.537 198.451 114.803 193.086 114.258C187.721 113.714 182.999 117.565 182.538 122.861C182.077 128.157 186.053 132.891 191.418 133.435Z" fill="#F8F9FA"/>
</svg>
